<?xml version="1.0" encoding="utf-8"?>
<!-- Generator: Adobe Illustrator 23.0.5, SVG Export Plug-In . SVG Version: 6.00 Build 0)  -->
<svg version="1.1" id="Capa_1" xmlns="http://www.w3.org/2000/svg" xmlns:xlink="http://www.w3.org/1999/xlink" x="0px" y="0px"
	 viewBox="0 0 100 100" style="enable-background:new 0 0 100 100;" xml:space="preserve">
<style type="text/css">
	.st0{fill-rule:evenodd;clip-rule:evenodd;fill:#DF9C0D;}
</style>
<g>
	<path class="st0" d="M32.94,30.5c-1.35,0-2.44-1.09-2.44-2.44v-2.44h-9.75v9.75h58.5v-9.75H69.5v2.44c0,1.35-1.09,2.44-2.44,2.44
		h-4.87c-1.35,0-2.44-1.09-2.44-2.44v-2.44h-19.5v2.44c0,1.35-1.09,2.44-2.44,2.44H32.94z M59.75,15.87h-19.5v-2.44
		c0-1.34-1.09-2.44-2.44-2.44h-4.87c-1.35,0-2.44,1.09-2.44,2.44v2.44H13.44c-1.35,0-2.44,1.09-2.44,2.44v68.25
		c0,1.35,1.09,2.44,2.44,2.44h73.12c1.34,0,2.44-1.09,2.44-2.44V18.31c0-1.35-1.09-2.44-2.44-2.44H69.5v-2.44
		c0-1.34-1.09-2.44-2.44-2.44h-4.88c-1.35,0-2.44,1.09-2.44,2.44V15.87z M20.75,79.25h58.5V45.12h-58.5V79.25z"/>
</g>
</svg>
