<?xml version="1.0" encoding="utf-8"?>
<!-- Generator: Adobe Illustrator 24.3.0, SVG Export Plug-In . SVG Version: 6.00 Build 0)  -->
<svg version="1.1" id="Capa_1" xmlns="http://www.w3.org/2000/svg" xmlns:xlink="http://www.w3.org/1999/xlink" x="0px" y="0px"
	 viewBox="0 0 100 100" style="enable-background:new 0 0 100 100;" xml:space="preserve">
<style type="text/css">
	.st0{fill-rule:evenodd;clip-rule:evenodd;fill:#E81F76;}
</style>
<path class="st0" d="M33.63,31.29c-1.29,0-2.34-1.05-2.34-2.34v-2.34h-9.35v9.35h56.12v-9.35h-9.35v2.34c0,1.29-1.05,2.34-2.34,2.34
	h-4.68c-1.29,0-2.34-1.05-2.34-2.34v-2.34H40.65v2.34c0,1.29-1.05,2.34-2.34,2.34H33.63z M59.35,17.26H40.65v-2.34
	c0-1.29-1.05-2.34-2.34-2.34h-4.68c-1.29,0-2.34,1.05-2.34,2.34v2.34H14.92c-1.29,0-2.34,1.05-2.34,2.34v65.48
	c0,1.29,1.05,2.34,2.34,2.34h70.15c1.29,0,2.34-1.05,2.34-2.34V19.6c0-1.29-1.05-2.34-2.34-2.34H68.71v-2.34
	c0-1.29-1.05-2.34-2.34-2.34h-4.68c-1.29,0-2.34,1.05-2.34,2.34L59.35,17.26z M21.94,45.32v32.74h56.12V45.32H21.94z"/>
</svg>
